<?xml version="1.0" standalone="no"?>
<!DOCTYPE svg PUBLIC "-//W3C//DTD SVG 20010904//EN"
 "http://www.w3.org/TR/2001/REC-SVG-20010904/DTD/svg10.dtd">
<svg version="1.0" xmlns="http://www.w3.org/2000/svg"
 width="200.000000pt" height="200.000000pt" viewBox="0 0 200.000000 200.000000"
 preserveAspectRatio="xMidYMid meet">

<g transform="translate(0.000000,200.000000) scale(0.100000,-0.100000)"
fill="#000000" stroke="none">
<path d="M910 1894 c-167 -33 -300 -135 -376 -290 -55 -111 -56 -160 -3 -318
l43 -129 -18 -49 c-14 -40 -15 -55 -6 -83 16 -50 52 -68 143 -73 94 -6 99 -12
96 -115 -2 -71 -2 -72 24 -75 24 -3 27 0 27 27 0 17 5 31 10 31 6 0 10 -16 10
-35 0 -30 3 -35 24 -35 21 0 25 6 28 33 4 40 23 33 23 -8 0 -25 4 -30 28 -33
25 -3 27 -1 27 32 0 20 5 36 10 36 6 0 10 -16 10 -35 0 -31 3 -35 25 -35 22 0
25 4 25 36 0 44 24 42 28 -3 3 -26 6 -29 28 -25 20 4 24 10 24 38 0 41 17 46
22 7 2 -22 8 -28 28 -28 24 0 25 2 22 64 -2 35 2 77 9 93 11 26 15 28 68 28
120 0 179 43 166 120 -18 108 -18 117 20 226 48 139 47 197 -8 307 -90 181
-246 285 -442 292 -49 2 -101 1 -115 -1z m-13 -610 c22 -16 29 -31 31 -63 3
-36 -1 -46 -26 -70 -72 -66 -226 -68 -262 -2 -24 46 -1 119 48 146 41 23 172
17 209 -11z m413 11 c54 -28 77 -107 45 -152 -21 -30 -78 -47 -136 -40 -91 11
-149 57 -149 117 0 61 45 88 148 89 38 1 75 -5 92 -14z m-320 -155 c0 -11 5
-20 10 -20 6 0 10 9 10 20 0 11 5 20 10 20 24 0 65 -156 51 -193 -13 -34 -37
-40 -61 -15 -17 18 -20 19 -20 5 0 -9 -2 -17 -4 -17 -2 0 -11 -3 -19 -6 -10
-3 -22 4 -32 20 -16 24 -16 30 0 98 20 81 31 108 45 108 6 0 10 -9 10 -20z"/>
<path d="M269 991 c-18 -14 -23 -31 -27 -82 -4 -51 -11 -73 -38 -112 -36 -53
-40 -67 -24 -97 16 -30 71 -35 138 -11 50 17 69 19 117 11 79 -13 213 -55 328
-103 l99 -42 -64 -28 c-91 -41 -282 -104 -360 -118 -61 -11 -71 -10 -124 10
-84 32 -144 14 -144 -42 0 -7 14 -35 32 -62 24 -37 34 -65 39 -112 8 -76 28
-103 75 -103 45 0 87 38 114 104 21 52 26 57 98 94 43 22 163 77 269 121 l191
81 219 -94 c308 -131 319 -138 334 -183 44 -138 189 -170 189 -42 0 35 6 47
44 83 67 65 73 131 16 161 -41 21 -93 19 -135 -6 -45 -27 -112 -22 -236 17
-88 27 -278 102 -292 114 -10 9 190 94 298 125 133 38 186 42 228 16 49 -30
120 -29 152 4 41 40 28 98 -32 150 -30 26 -36 38 -41 83 -4 42 -10 57 -28 69
-50 32 -113 -5 -155 -93 -36 -76 -22 -68 -342 -204 l-218 -93 -217 93 c-298
127 -314 137 -342 205 -38 93 -107 130 -161 86z"/>
</g>
</svg>
